<svg width="96" height="18" viewBox="0 0 96 18" fill="none" xmlns="http://www.w3.org/2000/svg">
<g id="Group 545">
<g id="Star 1">
<path d="M10.1187 0.0185547L12.2393 6.20168H19.1018L13.5499 10.0231L15.6706 16.2062L10.1187 12.3848L4.5668 16.2062L6.68743 10.0231L1.13554 6.20168H7.99805L10.1187 0.0185547Z" fill="#BC2A2B"/>
<path d="M10.1187 0.0185547L12.2393 6.20168H19.1018L13.5499 10.0231L15.6706 16.2062L10.1187 12.3848L4.5668 16.2062L6.68743 10.0231L1.13554 6.20168H7.99805L10.1187 0.0185547Z" fill="#BC2A2B"/>
</g>
<g id="Star 2">
<path d="M29.0096 0.0185547L31.1302 6.20168H37.9927L32.4408 10.0231L34.5614 16.2062L29.0096 12.3848L23.4577 16.2062L25.5783 10.0231L20.0264 6.20168H26.8889L29.0096 0.0185547Z" fill="#BC2A2B"/>
<path d="M29.0096 0.0185547L31.1302 6.20168H37.9927L32.4408 10.0231L34.5614 16.2062L29.0096 12.3848L23.4577 16.2062L25.5783 10.0231L20.0264 6.20168H26.8889L29.0096 0.0185547Z" fill="#BC2A2B"/>
</g>
<g id="Star 3">
<path d="M47.9005 0.0185547L50.0211 6.20168H56.8836L51.3317 10.0231L53.4523 16.2062L47.9005 12.3848L42.3486 16.2062L44.4692 10.0231L38.9173 6.20168H45.7798L47.9005 0.0185547Z" fill="#BC2A2B"/>
<path d="M47.9005 0.0185547L50.0211 6.20168H56.8836L51.3317 10.0231L53.4523 16.2062L47.9005 12.3848L42.3486 16.2062L44.4692 10.0231L38.9173 6.20168H45.7798L47.9005 0.0185547Z" fill="#BC2A2B"/>
</g>
<g id="Star 4">
<path d="M66.7913 0.0185547L68.912 6.20168H75.7745L70.2226 10.0231L72.3432 16.2062L66.7913 12.3848L61.2394 16.2062L63.3601 10.0231L57.8082 6.20168H64.6707L66.7913 0.0185547Z" fill="#BC2A2B"/>
<path d="M66.7913 0.0185547L68.912 6.20168H75.7745L70.2226 10.0231L72.3432 16.2062L66.7913 12.3848L61.2394 16.2062L63.3601 10.0231L57.8082 6.20168H64.6707L66.7913 0.0185547Z" fill="#BC2A2B"/>
</g>
<g id="Star 5">
<path d="M85.6822 0.0185547L87.8028 6.20168H94.6653L89.1134 10.0231L91.2341 16.2062L85.6822 12.3848L80.1303 16.2062L82.2509 10.0231L76.699 6.20168H83.5616L85.6822 0.0185547Z" fill="#BC2A2B"/>
<path d="M85.6822 0.0185547L87.8028 6.20168H94.6653L89.1134 10.0231L91.2341 16.2062L85.6822 12.3848L80.1303 16.2062L82.2509 10.0231L76.699 6.20168H83.5616L85.6822 0.0185547Z" fill="#BC2A2B"/>
</g>
</g>
</svg>
