<svg width="182" height="49" viewBox="0 0 182 49" fill="none" xmlns="http://www.w3.org/2000/svg">
<g id="Social icons">
<g id="Twitter">
<path id="Oval 10 Copy" opacity="0.25" fill-rule="evenodd" clip-rule="evenodd" d="M157.667 47.7876C170.553 47.7876 181 37.4706 181 24.7439C181 12.0172 170.553 1.7002 157.667 1.7002C144.78 1.7002 134.333 12.0172 134.333 24.7439C134.333 37.4706 144.78 47.7876 157.667 47.7876Z" stroke="white" stroke-width="1.5"/>
<path id="Shape" d="M165.294 20.4837C165.185 20.3628 165.011 20.3324 164.868 20.407C164.779 20.4533 164.611 20.5141 164.412 20.5741C164.663 20.2354 164.865 19.8562 164.954 19.5153C164.992 19.3684 164.936 19.2135 164.813 19.126C164.691 19.0391 164.528 19.0391 164.405 19.126C164.212 19.2628 163.28 19.6738 162.691 19.807C161.359 18.6223 159.81 18.4992 158.199 19.4545C156.889 20.2311 156.605 21.8102 156.66 22.7728C153.663 22.4797 151.8 20.8716 150.751 19.5407C150.678 19.4473 150.559 19.3981 150.448 19.4053C150.331 19.414 150.226 19.4799 150.166 19.5819C149.67 20.4323 149.533 21.3724 149.77 22.3009C149.9 22.8075 150.126 23.254 150.389 23.6159C150.263 23.5529 150.141 23.4741 150.026 23.38C149.921 23.2917 149.773 23.275 149.649 23.3337C149.525 23.3937 149.446 23.5211 149.446 23.6608C149.446 25.2551 150.428 26.319 151.344 26.8748C151.196 26.8567 151.042 26.8234 150.886 26.7749C150.752 26.7337 150.606 26.7749 150.514 26.882C150.421 26.9884 150.399 27.1404 150.457 27.2699C150.972 28.4272 151.948 29.2232 153.156 29.512C152.101 30.1409 150.69 30.4492 149.397 30.298C149.23 30.2741 149.07 30.3819 149.018 30.5455C148.965 30.709 149.034 30.8885 149.181 30.9725C151.142 32.0906 152.915 32.4901 154.446 32.4901C156.676 32.4901 158.396 31.6448 159.444 30.9377C162.267 29.0344 164.027 25.617 163.782 22.5593C164.234 22.2199 164.911 21.5931 165.331 20.9193C165.418 20.7833 165.402 20.6038 165.294 20.4837Z" fill="white"/>
</g>
<g id="Facebook">
<path id="Oval 10" opacity="0.25" fill-rule="evenodd" clip-rule="evenodd" d="M91 47.7876C103.887 47.7876 114.333 37.4706 114.333 24.7439C114.333 12.0172 103.887 1.7002 91 1.7002C78.1133 1.7002 67.6666 12.0172 67.6666 24.7439C67.6666 37.4706 78.1133 47.7876 91 47.7876Z" stroke="white" stroke-width="1.5"/>
<path id="Shape_2" d="M93.1242 18.8455H95.2687C95.466 18.8455 95.6261 18.6965 95.6261 18.5129V16.5172C95.6261 16.3336 95.466 16.1846 95.2687 16.1846H93.1242C90.9568 16.1846 89.1926 17.8257 89.1926 19.8434V22.1717H86.6907C86.4934 22.1717 86.3333 22.3207 86.3333 22.5043V24.5C86.3333 24.6836 86.4934 24.8326 86.6907 24.8326H89.1926V31.8176C89.1926 32.0012 89.3527 32.1502 89.55 32.1502H91.6945C91.8918 32.1502 92.0519 32.0012 92.0519 31.8176V24.8326H94.5539C94.7075 24.8326 94.8441 24.7408 94.8934 24.6051L95.6082 22.6094C95.6447 22.5083 95.6261 22.3965 95.5589 22.3094C95.491 22.2229 95.3838 22.1717 95.2687 22.1717H92.0519V19.8434C92.0519 19.2932 92.533 18.8455 93.1242 18.8455Z" fill="white"/>
</g>
<g id="Linkedin">
<path id="Oval 10 Copy 3" opacity="0.25" fill-rule="evenodd" clip-rule="evenodd" d="M24.3333 47.7876C37.22 47.7876 47.6667 37.4706 47.6667 24.7439C47.6667 12.0172 37.22 1.7002 24.3333 1.7002C11.4467 1.7002 1 12.0172 1 24.7439C1 37.4706 11.4467 47.7876 24.3333 47.7876Z" stroke="white" stroke-width="1.5"/>
<g id="Group 36">
<path id="Oval" d="M18.9782 20.0921C20.0706 20.0921 20.9563 19.2175 20.9563 18.1386C20.9563 17.0597 20.0706 16.1851 18.9782 16.1851C17.8857 16.1851 17.0001 17.0597 17.0001 18.1386C17.0001 19.2175 17.8857 20.0921 18.9782 20.0921Z" fill="white"/>
<path id="Shape_3" d="M20.6265 21.397H17.3297C17.1477 21.397 17 21.5428 17 21.7226V31.4901C17 31.6699 17.1477 31.8157 17.3297 31.8157H20.6265C20.8084 31.8157 20.9561 31.6699 20.9561 31.4901V21.7226C20.9561 21.5428 20.8084 21.397 20.6265 21.397Z" fill="white"/>
<path id="Shape_4" d="M30.4508 20.8554C29.0417 20.3787 27.2793 20.7974 26.2223 21.5482C26.1861 21.4082 26.0568 21.304 25.9032 21.304H22.6064C22.4244 21.304 22.2767 21.4499 22.2767 21.6296V31.3972C22.2767 31.5769 22.4244 31.7228 22.6064 31.7228H25.9032C26.0852 31.7228 26.2329 31.5769 26.2329 31.3972V24.3776C26.7656 23.9244 27.452 23.7798 28.0138 24.0155C28.5584 24.2428 28.8703 24.7976 28.8703 25.5367V31.3972C28.8703 31.5769 29.018 31.7228 29.2 31.7228H32.4967C32.6787 31.7228 32.8264 31.5769 32.8264 31.3972V24.8809C32.7888 22.2053 31.5143 21.2148 30.4508 20.8554Z" fill="white"/>
</g>
</g>
</g>
</svg>
