<svg width="72" height="64" viewBox="0 0 72 64" fill="none" xmlns="http://www.w3.org/2000/svg">
<g id="&#240;&#159;&#166;&#134; icon &#34;Add to Shopping Cart&#34;">
<path id="Vector" d="M62.9653 39.9212H26.3944L27.2109 43.9133H60.697C62.6184 43.9133 64.0424 45.6974 63.6166 47.5709L62.9284 50.5995C65.2601 51.7313 66.868 54.1216 66.868 56.8877C66.868 60.7802 63.6844 63.9293 59.779 63.8731C56.0584 63.8196 52.9986 60.8003 52.8982 57.0807C52.8433 55.0488 53.6573 53.2072 54.9944 51.8974H28.8401C30.1346 53.1656 30.9389 54.9323 30.9389 56.8877C30.9389 60.8565 27.6294 64.0524 23.6196 63.8661C20.0591 63.7008 17.1635 60.824 16.9764 57.2645C16.8319 54.5157 18.2783 52.0929 20.4758 50.829L11.7122 7.98423H2.99409C1.34048 7.98423 0 6.64376 0 4.99015V2.99409C0 1.34048 1.34048 0 2.99409 0H15.785C17.2073 0 18.4332 1.00065 18.7183 2.39402L19.8618 7.98423H68.8628C70.7841 7.98423 72.2082 9.76834 71.7824 11.6419L65.8849 37.5906C65.5751 38.9538 64.3633 39.9212 62.9653 39.9212ZM50.8995 20.9586H44.9113V15.9685C44.9113 14.866 44.0177 13.9724 42.9153 13.9724H40.9192C39.8168 13.9724 38.9231 14.866 38.9231 15.9685V20.9586H32.935C31.8325 20.9586 30.9389 21.8522 30.9389 22.9547V24.9507C30.9389 26.0532 31.8325 26.9468 32.935 26.9468H38.9231V31.9369C38.9231 33.0394 39.8168 33.933 40.9192 33.933H42.9153C44.0177 33.933 44.9113 33.0394 44.9113 31.9369V26.9468H50.8995C52.0019 26.9468 52.8956 26.0532 52.8956 24.9507V22.9547C52.8956 21.8522 52.0019 20.9586 50.8995 20.9586Z" fill="black"/>
</g>
</svg>
