<svg width="97" height="78" viewBox="0 0 97 78" fill="none" xmlns="http://www.w3.org/2000/svg">
<g id="&#240;&#159;&#166;&#134; icon &#34;Helping Hands&#34;">
<path id="Vector" d="M73.8104 29.0355H50.8214V37.5052C50.8214 43.5096 45.9362 48.3947 39.9318 48.3947C33.9274 48.3947 29.0423 43.5096 29.0423 37.5052V19.1139L19.2265 25.0124C16.3075 26.7518 14.5229 29.9127 14.5229 33.3006V40.4544L2.42335 47.4419C0.10932 48.7729 -0.692272 51.7372 0.653798 54.0513L12.7533 75.0136C14.0842 77.3277 17.0486 78.1142 19.3627 76.7832L35.0013 67.7539H55.6612C61.0001 67.7539 65.3408 63.4132 65.3408 58.0743H67.7607C70.4377 58.0743 72.6005 55.9116 72.6005 53.2345V43.5549H73.8104C75.822 43.5549 77.4403 41.9366 77.4403 39.9251V32.6654C77.4403 30.6538 75.822 29.0355 73.8104 29.0355ZM96.1491 23.379L84.0496 2.41663C82.7187 0.102599 79.7543 -0.683869 77.4403 0.647077L61.8017 9.67633H46.3445C44.5296 9.67633 42.7601 10.1906 41.2174 11.1434L36.1507 14.3044C34.729 15.1816 33.8821 16.7394 33.8821 18.4031V37.5052C33.8821 40.8477 36.5893 43.5549 39.9318 43.5549C43.2743 43.5549 45.9816 40.8477 45.9816 37.5052V24.1957H73.8104C78.4838 24.1957 82.2801 27.992 82.2801 32.6654V36.9758L94.3796 29.9884C96.6936 28.6423 97.4801 25.693 96.1491 23.379Z" fill="#363636"/>
</g>
</svg>
