<svg width="19" height="18" viewBox="0 0 19 18" fill="none" xmlns="http://www.w3.org/2000/svg">
<g id="&#240;&#159;&#166;&#134; icon &#34;road&#34;">
<path id="Vector" d="M18.4826 15.5727L14.1393 1.31062C13.9848 0.803424 13.6483 0.478516 13.278 0.478516H10.2458L10.322 1.51074C10.3375 1.7211 10.2222 1.90473 10.0746 1.90473H9.16863C9.02105 1.90473 8.90577 1.7211 8.92131 1.51074L8.99743 0.478516H5.96528C5.59461 0.478516 5.25812 0.803424 5.1037 1.31062L0.760387 15.5727C0.472986 16.5171 0.931584 17.593 1.62228 17.593H7.73815L8.05849 13.2395C8.08521 12.8767 8.29835 12.6013 8.55282 12.6013H10.6905C10.9449 12.6013 11.1581 12.8767 11.1848 13.2395L11.5051 17.593H17.621C18.3117 17.593 18.7703 16.5171 18.4826 15.5727ZM8.76409 3.65005C8.77054 3.56242 8.79939 3.48133 8.84505 3.4224C8.89072 3.36347 8.94999 3.33089 9.01141 3.33094H10.2322C10.3592 3.33094 10.4661 3.46865 10.4795 3.65005L10.6224 5.59237C10.6457 5.90836 10.473 6.18336 10.2517 6.18336H8.99215C8.77062 6.18336 8.59818 5.90836 8.62148 5.59237L8.76409 3.65005ZM10.4804 11.1751H8.76254C8.46737 11.1751 8.23714 10.8083 8.26821 10.3871L8.42574 8.24779C8.45246 7.885 8.6656 7.60957 8.92007 7.60957H10.3229C10.5774 7.60957 10.7905 7.885 10.8172 8.24779L10.9747 10.3871C11.0058 10.8083 10.7756 11.1751 10.4804 11.1751Z" fill="#BC2A2B"/>
</g>
</svg>
