<svg width="20" height="22" viewBox="0 0 20 22" fill="none" xmlns="http://www.w3.org/2000/svg">
<g id="&#240;&#159;&#166;&#134; icon &#34;User&#34;">
<path id="Vector" d="M10.0658 11.1538C12.949 11.1538 15.2857 8.81711 15.2857 5.93396C15.2857 3.05081 12.949 0.714111 10.0658 0.714111C7.18266 0.714111 4.84596 3.05081 4.84596 5.93396C4.84596 8.81711 7.18266 11.1538 10.0658 11.1538ZM13.7197 12.4588H13.0387C12.1334 12.8747 11.1261 13.1112 10.0658 13.1112C9.00553 13.1112 8.00234 12.8747 7.09294 12.4588H6.41192C3.38604 12.4588 0.931076 14.9137 0.931076 17.9396V19.6361C0.931076 20.7167 1.80785 21.5935 2.88852 21.5935H17.2431C18.3238 21.5935 19.2005 20.7167 19.2005 19.6361V17.9396C19.2005 14.9137 16.7456 12.4588 13.7197 12.4588Z" fill="#BC2A2B"/>
</g>
</svg>
