<svg width="20" height="16" viewBox="0 0 20 16" fill="none" xmlns="http://www.w3.org/2000/svg">
<g id="&#240;&#159;&#166;&#134; icon &#34;cogs&#34;">
<path id="Vector" d="M15.8985 6.06346L15.6589 6.48141C15.5712 6.63631 15.3841 6.70061 15.2175 6.63923C14.8727 6.51063 14.557 6.3265 14.2794 6.09561C14.1449 5.98455 14.1098 5.78873 14.1975 5.63674L14.4372 5.2188C14.2355 4.98498 14.0777 4.71317 13.9725 4.41798H13.4902C13.3149 4.41798 13.1629 4.2923 13.1337 4.11694C13.0752 3.76621 13.0723 3.39795 13.1337 3.03261C13.1629 2.85725 13.3149 2.72865 13.4902 2.72865H13.9725C14.0777 2.43346 14.2355 2.16165 14.4372 1.92783L14.1975 1.50988C14.1098 1.3579 14.142 1.16208 14.2794 1.05102C14.557 0.820124 14.8756 0.635994 15.2175 0.507395C15.3841 0.446018 15.5712 0.510317 15.6589 0.665221L15.8985 1.08317C16.2054 1.02764 16.5181 1.02764 16.825 1.08317L17.0647 0.665221C17.1524 0.510317 17.3394 0.446018 17.506 0.507395C17.8509 0.635994 18.1666 0.820124 18.4442 1.05102C18.5787 1.16208 18.6137 1.3579 18.526 1.50988L18.2864 1.92783C18.488 2.16165 18.6459 2.43346 18.7511 2.72865H19.2333C19.4087 2.72865 19.5607 2.85433 19.5899 3.02969C19.6484 3.38042 19.6513 3.74868 19.5899 4.11401C19.5607 4.28938 19.4087 4.41798 19.2333 4.41798H18.7511C18.6459 4.71317 18.488 4.98498 18.2864 5.2188L18.526 5.63674C18.6137 5.78873 18.5816 5.98455 18.4442 6.09561C18.1666 6.3265 17.848 6.51063 17.506 6.63923C17.3394 6.70061 17.1524 6.63631 17.0647 6.48141L16.825 6.06346C16.5211 6.11899 16.2054 6.11899 15.8985 6.06346ZM15.5916 4.34491C16.7169 5.21003 18 3.92696 17.1348 2.80172C16.0096 1.93368 14.7265 3.21967 15.5916 4.34491ZM12.2218 8.84295L13.2067 9.33397C13.5019 9.50348 13.6305 9.86298 13.5136 10.1845C13.2535 10.8918 12.742 11.5406 12.2685 12.1076C12.0522 12.3677 11.6781 12.432 11.3829 12.2625L10.5324 11.7715C10.0648 12.1719 9.52119 12.4905 8.92788 12.698V13.68C8.92788 14.0191 8.68529 14.3113 8.3521 14.3698C7.63312 14.4925 6.87906 14.4984 6.13377 14.3698C5.79766 14.3113 5.54923 14.022 5.54923 13.68V12.698C4.95592 12.4876 4.41229 12.1719 3.94466 11.7715L3.09415 12.2596C2.80188 12.4291 2.42485 12.3648 2.20857 12.1047C1.73509 11.5377 1.23531 10.8888 0.975191 10.1845C0.858283 9.8659 0.986882 9.50641 1.28208 9.33397L2.25534 8.84295C2.14135 8.23211 2.14135 7.60373 2.25534 6.98996L1.28208 6.49602C0.986882 6.3265 0.85536 5.96701 0.975191 5.64844C1.23531 4.94114 1.73509 4.2923 2.20857 3.72529C2.42485 3.46517 2.79896 3.40087 3.09415 3.57039L3.94466 4.06141C4.41229 3.661 4.95592 3.34242 5.54923 3.13491V2.14996C5.54923 1.81384 5.78889 1.52157 6.12208 1.46312C6.84106 1.34037 7.59804 1.33452 8.34333 1.4602C8.67945 1.51865 8.92788 1.808 8.92788 2.14996V3.13199C9.52119 3.34242 10.0648 3.65807 10.5324 4.05848L11.3829 3.56747C11.6752 3.39795 12.0522 3.46225 12.2685 3.72237C12.742 4.28938 13.2389 4.93822 13.499 5.64551C13.6159 5.96409 13.5019 6.32358 13.2067 6.49602L12.2218 6.98704C12.3358 7.6008 12.3358 8.22919 12.2218 8.84295ZM8.78466 9.45964C10.5149 7.20916 7.94585 4.6401 5.69536 6.37034C3.96512 8.62083 6.53418 11.1899 8.78466 9.45964ZM15.8985 14.7994L15.6589 15.2174C15.5712 15.3723 15.3841 15.4366 15.2175 15.3752C14.8727 15.2466 14.557 15.0625 14.2794 14.8316C14.1449 14.7205 14.1098 14.5247 14.1975 14.3727L14.4372 13.9548C14.2355 13.721 14.0777 13.4491 13.9725 13.1539H13.4902C13.3149 13.1539 13.1629 13.0283 13.1337 12.8529C13.0752 12.5022 13.0723 12.1339 13.1337 11.7686C13.1629 11.5932 13.3149 11.4646 13.4902 11.4646H13.9725C14.0777 11.1694 14.2355 10.8976 14.4372 10.6638L14.1975 10.2459C14.1098 10.0939 14.142 9.89805 14.2794 9.78699C14.557 9.55609 14.8756 9.37196 15.2175 9.24336C15.3841 9.18199 15.5712 9.24629 15.6589 9.40119L15.8985 9.81914C16.2054 9.76361 16.5181 9.76361 16.825 9.81914L17.0647 9.40119C17.1524 9.24629 17.3394 9.18199 17.506 9.24336C17.8509 9.37196 18.1666 9.55609 18.4442 9.78699C18.5787 9.89805 18.6137 10.0939 18.526 10.2459L18.2864 10.6638C18.488 10.8976 18.6459 11.1694 18.7511 11.4646H19.2333C19.4087 11.4646 19.5607 11.5903 19.5899 11.7657C19.6484 12.1164 19.6513 12.4846 19.5899 12.85C19.5607 13.0253 19.4087 13.1539 19.2333 13.1539H18.7511C18.6459 13.4491 18.488 13.721 18.2864 13.9548L18.526 14.3727C18.6137 14.5247 18.5816 14.7205 18.4442 14.8316C18.1666 15.0625 17.848 15.2466 17.506 15.3752C17.3394 15.4366 17.1524 15.3723 17.0647 15.2174L16.825 14.7994C16.5211 14.855 16.2054 14.855 15.8985 14.7994ZM15.5916 13.078C16.7169 13.9431 18 12.66 17.1348 11.5348C16.0096 10.6696 14.7265 11.9527 15.5916 13.078Z" fill="#BC2A2B"/>
</g>
</svg>
