<svg width="22" height="21" viewBox="0 0 22 21" fill="none" xmlns="http://www.w3.org/2000/svg">
<g id="&#240;&#159;&#166;&#134; icon &#34;Gas Pump&#34;">
<path id="Vector" d="M14.3753 18.085H1.32573C0.966865 18.085 0.673248 18.3647 0.673248 18.7064V19.9493C0.673248 20.291 0.966865 20.5707 1.32573 20.5707H14.3753C14.7342 20.5707 15.0278 20.291 15.0278 19.9493V18.7064C15.0278 18.3647 14.7342 18.085 14.3753 18.085ZM20.786 4.85288L17.4828 1.70699C17.2299 1.46619 16.814 1.46619 16.5612 1.70699L16.1003 2.14586C15.8475 2.38666 15.8475 2.78281 16.1003 3.0236L17.6378 4.4878V6.89965C17.6378 7.991 18.4901 8.89205 19.5952 9.04352V15.2887C19.5952 15.8014 19.1548 16.2208 18.6165 16.2208C18.0782 16.2208 17.6378 15.8014 17.6378 15.2887V14.0459C17.6378 12.1583 16.031 10.6281 14.0491 10.6281H13.7229V3.17119C13.7229 1.8002 12.5525 0.685547 11.1129 0.685547H4.58813C3.1486 0.685547 1.97821 1.8002 1.97821 3.17119V16.8422H13.7229V12.4923H14.0491C14.9503 12.4923 15.6803 13.1875 15.6803 14.0459V15.1256C15.6803 16.5898 16.7814 17.9219 18.3106 18.0734C20.0642 18.2404 21.5526 16.9277 21.5526 15.2887V6.61225C21.5526 5.952 21.2753 5.31894 20.786 4.85288ZM11.1129 8.14247H4.58813V3.17119H11.1129V8.14247Z" fill="#BC2A2B"/>
</g>
</svg>
