<svg width="89" height="62" viewBox="0 0 89 62" fill="none" xmlns="http://www.w3.org/2000/svg">
<g id="&#240;&#159;&#166;&#134; icon &#34;Car&#34;">
<path id="Vector" d="M86.9118 18.0833H76.5047L73.6122 11.3667C70.6397 4.46109 63.5458 0 55.5375 0H33.4613C25.4548 0 18.3591 4.46109 15.3849 11.3667L12.4924 18.0833H2.08705C0.729447 18.0833 -0.26659 19.2684 0.0636843 20.4907L1.10665 24.3657C1.33785 25.2279 2.17222 25.8333 3.13002 25.8333H6.61875C4.28424 27.7272 2.78062 30.4801 2.78062 33.5833V41.3333C2.78062 43.936 3.8514 46.2853 5.56187 48.1033V56.8333C5.56187 59.6863 8.05284 62 11.1244 62H16.6869C19.7584 62 22.2494 59.6863 22.2494 56.8333V51.6667H66.7495V56.8333C66.7495 59.6863 69.2404 62 72.312 62H77.8745C80.946 62 83.437 59.6863 83.437 56.8333V48.1033C85.1474 46.2869 86.2182 43.9377 86.2182 41.3333V33.5833C86.2182 30.4801 84.7146 27.7272 82.3818 25.8333H85.8706C86.8284 25.8333 87.6627 25.2279 87.8939 24.3657L88.9369 20.4907C89.2654 19.2684 88.2694 18.0833 86.9118 18.0833ZM25.7138 15.2045C26.981 12.2628 30.0491 10.3333 33.4613 10.3333H55.5375C58.9498 10.3333 62.0178 12.2628 63.2851 15.2045L66.7495 23.25H22.2494L25.7138 15.2045ZM16.6869 41.301C13.3494 41.301 11.1244 39.2408 11.1244 36.1505C11.1244 33.0602 13.3494 31 16.6869 31C20.0244 31 25.0307 35.6355 25.0307 38.7258C25.0307 41.8161 20.0244 41.301 16.6869 41.301ZM72.312 41.301C68.9745 41.301 63.9682 41.8161 63.9682 38.7258C63.9682 35.6355 68.9745 31 72.312 31C75.6495 31 77.8745 33.0602 77.8745 36.1505C77.8745 39.2408 75.6495 41.301 72.312 41.301Z" fill="black"/>
</g>
</svg>
